<svg width="537" height="517" viewBox="0 0 537 517" fill="none" xmlns="http://www.w3.org/2000/svg">
<g filter="url(#filter0_f)">
<path d="M232.827 196.532H158.122C156.971 196.532 156.058 197.501 156.126 198.65L158.374 236.489C158.436 237.535 159.296 238.356 160.344 238.37L187.316 238.729C188.41 238.744 189.289 239.635 189.289 240.729V250.693C189.289 251.798 188.394 252.693 187.289 252.693H158C156.895 252.693 156 253.589 156 254.693V260.532C156 261.636 156.895 262.532 158 262.532H233C234.105 262.532 235 261.636 235 260.532V254.693C235 253.589 234.105 252.693 233 252.693H202.717C201.612 252.693 200.717 251.798 200.717 250.693V240.729C200.717 239.635 201.596 238.744 202.69 238.729L229.706 238.37C230.736 238.356 231.587 237.562 231.673 236.536L234.82 198.698C234.917 197.532 233.997 196.532 232.827 196.532Z" fill="#333333"/>
<path d="M232.827 196.532H158.122C156.971 196.532 156.058 197.501 156.126 198.65L158.374 236.489C158.436 237.535 159.296 238.356 160.344 238.37L187.316 238.729C188.41 238.744 189.289 239.635 189.289 240.729V250.693C189.289 251.798 188.394 252.693 187.289 252.693H158C156.895 252.693 156 253.589 156 254.693V260.532C156 261.636 156.895 262.532 158 262.532H233C234.105 262.532 235 261.636 235 260.532V254.693C235 253.589 234.105 252.693 233 252.693H202.717C201.612 252.693 200.717 251.798 200.717 250.693V240.729C200.717 239.635 201.596 238.744 202.69 238.729L229.706 238.37C230.736 238.356 231.587 237.562 231.673 236.536L234.82 198.698C234.917 197.532 233.997 196.532 232.827 196.532Z" stroke="black"/>
</g>
<g filter="url(#filter1_f)">
<path d="M318 159.532H379V262.532H318V159.532Z" fill="#F2F2F2"/>
<path d="M318 159.532H379V262.532H318V159.532Z" stroke="black"/>
</g>
<g filter="url(#filter2_f)">
<path d="M318 192.032H379" stroke="black"/>
</g>
<g filter="url(#filter3_f)">
<path d="M318 227.032H379" stroke="black"/>
</g>
<g filter="url(#filter4_f)">
<path d="M389 159.532H450V269.532H389V159.532Z" fill="#F2F2F2"/>
<path d="M389 159.532H450V269.532H389V159.532Z" stroke="black"/>
</g>
<g filter="url(#filter5_f)">
<path d="M389 226.532H450" stroke="black"/>
</g>
<g filter="url(#filter6_f)">
<path d="M389 191.532H450" stroke="black"/>
</g>
<g filter="url(#filter7_f)">
<path d="M379.5 262.532V155.032H388.5V262.532H379.5Z" fill="#EB5757"/>
</g>
<g filter="url(#filter8_f)">
<path d="M303 132.532H426C428.209 132.532 430 134.323 430 136.532V158.045C430 160.255 428.209 162.045 426 162.045H322.135C319.926 162.045 318.135 163.836 318.135 166.045V270.532C318.135 272.741 316.344 274.532 314.135 274.532H303C300.791 274.532 299 272.741 299 270.532V136.532C299 134.323 300.791 132.532 303 132.532Z" fill="#EB5757"/>
</g>
<g filter="url(#filter9_f)">
<path d="M476 374.27V110.403C476 108.194 474.209 106.403 472 106.403H433.945C431.736 106.403 429.945 108.194 429.945 110.403V258.426C429.945 260.635 428.154 262.426 425.945 262.426H107.557C105.347 262.426 103.557 260.635 103.557 258.426V101.532C103.557 99.3226 101.766 97.5317 99.5566 97.5317H60C57.7909 97.5317 56 99.3226 56 101.532V374.27C56 376.479 57.7909 378.27 60 378.27H472C474.209 378.27 476 376.479 476 374.27Z" fill="#BDBDBD"/>
</g>
<g filter="url(#filter10_f)">
<path d="M187 224.032V214.032H203.5V224.032H187Z" fill="#828282"/>
<path d="M187 224.032V214.032H203.5V224.032H187Z" stroke="black"/>
</g>
<g filter="url(#filter11_f)">
<path d="M190.5 217.032V221.032" stroke="black"/>
</g>
<g filter="url(#filter12_f)">
<path d="M194.5 217.032V221.032" stroke="black"/>
</g>
<g filter="url(#filter13_f)">
<path d="M198.5 217.032V221.032" stroke="black"/>
</g>
<g filter="url(#filter14_f)">
<path d="M417 15.5316C396.5 5.28171 121.5 6.0314 98.5 14.5316C75.5 23.0317 8 163.032 8 163.032C10.8 185.032 40.1667 169.532 54.5 159.032C61.3 184.632 87 172.365 99 163.032C116.6 183.432 137.333 171.532 145.5 163.032C162.7 183.832 187.667 171.698 198 163.032C218.8 187.032 240 173.032 248 163.032C265.6 186.232 284 172.698 291 163.032C311 182.232 330 171.032 337 163.032C352.6 185.032 373.833 172.198 382.5 163.032C397.7 183.832 414.5 171.698 421 163.032C442.2 191.032 460.833 174.698 467.5 163.032C483.1 184.232 500.333 171.865 507 163.032C507 163.032 437.5 25.7815 417 15.5316Z" fill="#C24447"/>
</g>
<g filter="url(#filter15_f)">
<path d="M405.5 319.532H268C266.895 319.532 266 320.427 266 321.532V327.532C266 328.636 266.895 329.532 268 329.532H277C278.105 329.532 279 330.427 279 331.532V426.532C279 427.636 279.895 428.532 281 428.532H284C285.105 428.532 286 427.636 286 426.532V331.532C286 330.427 286.895 329.532 288 329.532H388.5C389.605 329.532 390.5 330.427 390.5 331.532V426.532C390.5 427.636 391.395 428.532 392.5 428.532H396C397.105 428.532 398 427.636 398 426.532V331.532C398 330.427 398.895 329.532 400 329.532H405.5C406.605 329.532 407.5 328.636 407.5 327.532V321.532C407.5 320.427 406.605 319.532 405.5 319.532Z" fill="#333333"/>
<path d="M405.5 319.532H268C266.895 319.532 266 320.427 266 321.532V327.532C266 328.636 266.895 329.532 268 329.532H277C278.105 329.532 279 330.427 279 331.532V426.532C279 427.636 279.895 428.532 281 428.532H284C285.105 428.532 286 427.636 286 426.532V331.532C286 330.427 286.895 329.532 288 329.532H388.5C389.605 329.532 390.5 330.427 390.5 331.532V426.532C390.5 427.636 391.395 428.532 392.5 428.532H396C397.105 428.532 398 427.636 398 426.532V331.532C398 330.427 398.895 329.532 400 329.532H405.5C406.605 329.532 407.5 328.636 407.5 327.532V321.532C407.5 320.427 406.605 319.532 405.5 319.532Z" stroke="black"/>
</g>
<g filter="url(#filter16_f)">
<path d="M504 373.532H416C414.895 373.532 414 374.427 414 375.532V378.229C414 379.334 414.895 380.229 416 380.229H420.452C421.557 380.229 422.452 381.124 422.452 382.229V444.532C422.452 445.636 423.348 446.532 424.452 446.532H425.004C426.108 446.532 427.004 445.636 427.004 444.532V382.229C427.004 381.124 427.899 380.229 429.004 380.229H492.947C494.052 380.229 494.947 381.124 494.947 382.229V444.532C494.947 445.636 495.842 446.532 496.947 446.532H497.823C498.928 446.532 499.823 445.636 499.823 444.532V382.229C499.823 381.124 500.719 380.229 501.823 380.229H504C505.105 380.229 506 379.334 506 378.229V375.532C506 374.427 505.105 373.532 504 373.532Z" fill="#333333"/>
<path d="M504 373.532H416C414.895 373.532 414 374.427 414 375.532V378.229C414 379.334 414.895 380.229 416 380.229H420.452C421.557 380.229 422.452 381.124 422.452 382.229V444.532C422.452 445.636 423.348 446.532 424.452 446.532H425.004C426.108 446.532 427.004 445.636 427.004 444.532V382.229C427.004 381.124 427.899 380.229 429.004 380.229H492.947C494.052 380.229 494.947 381.124 494.947 382.229V444.532C494.947 445.636 495.842 446.532 496.947 446.532H497.823C498.928 446.532 499.823 445.636 499.823 444.532V382.229C499.823 381.124 500.719 380.229 501.823 380.229H504C505.105 380.229 506 379.334 506 378.229V375.532C506 374.427 505.105 373.532 504 373.532Z" stroke="black"/>
</g>
<g filter="url(#filter17_f)">
<path d="M224.5 319.532H87C85.8954 319.532 85 320.427 85 321.532V327.532C85 328.636 85.8954 329.532 87 329.532H96C97.1046 329.532 98 330.427 98 331.532V426.532C98 427.636 98.8954 428.532 100 428.532H103C104.105 428.532 105 427.636 105 426.532V331.532C105 330.427 105.895 329.532 107 329.532H207.5C208.605 329.532 209.5 330.427 209.5 331.532V426.532C209.5 427.636 210.395 428.532 211.5 428.532H215C216.105 428.532 217 427.636 217 426.532V331.532C217 330.427 217.895 329.532 219 329.532H224.5C225.605 329.532 226.5 328.636 226.5 327.532V321.532C226.5 320.427 225.605 319.532 224.5 319.532Z" fill="#333333"/>
<path d="M224.5 319.532H87C85.8954 319.532 85 320.427 85 321.532V327.532C85 328.636 85.8954 329.532 87 329.532H96C97.1046 329.532 98 330.427 98 331.532V426.532C98 427.636 98.8954 428.532 100 428.532H103C104.105 428.532 105 427.636 105 426.532V331.532C105 330.427 105.895 329.532 107 329.532H207.5C208.605 329.532 209.5 330.427 209.5 331.532V426.532C209.5 427.636 210.395 428.532 211.5 428.532H215C216.105 428.532 217 427.636 217 426.532V331.532C217 330.427 217.895 329.532 219 329.532H224.5C225.605 329.532 226.5 328.636 226.5 327.532V321.532C226.5 320.427 225.605 319.532 224.5 319.532Z" stroke="black"/>
</g>
<g filter="url(#filter18_f)">
<path d="M455.097 247.948C460.672 243.313 461.041 236.794 460.709 234.724C462.701 234.724 456.629 277.213 452.646 297.218C449.162 316.257 448.166 356.404 449.66 356.818C450.854 357.149 454.472 376.271 456.131 385.791C453.476 385.929 447.569 386.122 445.179 385.791C442.192 385.377 441.197 375.857 440.699 375.443C440.301 375.112 438.542 381.1 437.712 384.135L415.809 381.652C415.809 375.029 417.468 354.335 418.298 344.815C419.492 339.849 425.101 328.674 427.756 323.707C430.942 321.058 431.075 300.805 430.743 291.01L436.219 252.104C436.883 252.38 438.708 253.346 440.699 255.001C443.188 257.071 449.66 257.484 450.655 255.001C451.452 253.014 453.603 249.052 455.097 247.948Z" fill="black"/>
<path d="M455.097 247.948C460.672 243.313 461.041 236.794 460.709 234.724C462.701 234.724 456.629 277.213 452.646 297.218C449.162 316.257 448.166 356.404 449.66 356.818C450.854 357.149 454.472 376.271 456.131 385.791C453.476 385.929 447.569 386.122 445.179 385.791C442.192 385.377 441.197 375.857 440.699 375.443C440.301 375.112 438.542 381.1 437.712 384.135L415.809 381.652C415.809 375.029 417.468 354.335 418.298 344.815C419.492 339.849 425.101 328.674 427.756 323.707C430.942 321.058 431.075 300.805 430.743 291.01L436.219 252.104C436.883 252.38 438.708 253.346 440.699 255.001C443.188 257.071 449.66 257.484 450.655 255.001C451.452 253.014 453.603 249.052 455.097 247.948Z" stroke="black"/>
</g>
<g filter="url(#filter19_f)">
<path d="M417.967 257.453C419.349 257.453 429.48 252.218 434.373 249.601C435.269 250.287 436.433 251.158 437.315 251.777C437.485 251.547 437.656 251.503 437.827 251.667C439.241 253.021 438.558 252.65 437.315 251.777C435.087 254.796 433.017 289.852 432.215 308.283C433.078 323.573 425.739 331.011 421.421 341.756C417.967 350.351 417.68 369.581 417.967 378.122C422.806 408.887 430.411 427.736 433.253 432.336C433.972 432.478 434.373 432.721 434.373 433.084C434.373 433.743 433.961 433.482 433.253 432.336C428.729 431.438 411.613 434.488 402.425 436.39L389.041 443.415L397.244 359.525L401.993 331.011C403.375 322.416 404.871 313.655 405.447 310.349C392.322 315.969 389.041 310.762 389.041 307.456C389.185 304.15 389.386 297.373 389.041 296.712C388.695 296.05 390.624 285.967 391.631 281.008L398.539 251.667C396.467 249.353 400.266 248.499 402.425 248.361C403.144 246.295 404.152 243.65 402.425 249.601C400.698 255.552 410.052 255.387 414.945 254.56C415.377 255.524 416.586 257.453 417.967 257.453Z" fill="#3DB39E"/>
</g>
<g filter="url(#filter20_f)">
<path d="M427 328.532L461.363 330.532V336.931C488.842 374.818 465.18 384.716 449.914 384.929C437.059 387.489 410.385 392.865 406.528 393.889C401.707 395.169 429.426 479.645 430.631 479.645H415.567C413.759 479.645 405.925 482.845 408.336 477.085C410.264 472.478 401.105 450.847 396.284 440.607C393.874 438.047 386.04 412.235 382.424 399.649C372.783 423.754 352.898 472.478 350.487 474.526C348.077 476.573 339.038 471.966 334.82 469.406C327.589 465.822 328.593 464.499 329.999 464.286L348.679 416.288C352.295 411.808 360.731 383.649 366.155 377.25C370.493 372.13 391.247 361.638 403.5 355.879C419.408 352.807 423.5 336.931 427 328.532Z" fill="#34406B"/>
</g>
<g filter="url(#filter21_f)">
<path d="M431.781 246.078C429.145 244.058 429.366 236.616 429.824 232.967C430.001 232.278 430.615 229.826 430.795 229.184C442.046 189.213 459.988 240.578 462.06 244.469C464.164 248.423 451.352 256.652 448.645 258.516C445.937 260.381 441.33 257.491 440.281 256.368C439.233 255.245 435.133 248.645 431.781 246.078Z" fill="#F5BD8E"/>
<path d="M429.847 232.781C429.375 236.357 429.099 244.023 431.781 246.078C435.133 248.645 439.233 255.245 440.281 256.368C441.33 257.491 445.937 260.381 448.645 258.516C451.352 256.652 464.164 248.423 462.06 244.469C459.988 240.578 442.046 189.213 430.795 229.184C430.615 229.826 430.001 232.278 429.824 232.967" stroke="#F5BD8E"/>
</g>
<g filter="url(#filter22_f)">
<path d="M459.845 237.204C459.924 237.383 460.002 237.601 460.077 237.858C461.424 239.682 468.309 240.386 471.934 240.51C475.244 243.402 483.591 249.518 490.499 250.841C497.407 252.163 498.846 256.351 498.702 258.279L523.743 302.084C527.542 307.373 528.78 322.195 528.924 328.945C530.305 332.912 512.517 345.199 503.451 350.847C505.178 357.79 500.717 372.198 498.27 378.535C499.997 385.147 501.292 423.992 501.724 442.588C501.38 450.827 476.125 452.633 463.421 452.508C463.387 452.54 463.346 452.54 463.299 452.506C463.34 452.507 463.38 452.507 463.421 452.508C464.394 451.589 460.343 424.609 458.118 410.768C457.773 394.569 452.506 369.03 449.915 358.286C447.325 357.046 447.325 318.2 449.915 310.349C451.988 304.067 455.096 282.386 456.392 272.33C461.538 252.008 461.093 241.341 460.077 237.858C459.927 237.654 459.845 237.436 459.845 237.204Z" fill="#3DB39E"/>
</g>
<g filter="url(#filter23_f)">
<path d="M508.729 303.532H504C506.27 303.532 506.522 316.865 506.365 323.532C509.391 322.939 509.202 309.951 508.729 303.532Z" fill="#24675B"/>
</g>
<g filter="url(#filter24_f)">
<path d="M393.462 220.907C392.255 221.019 387.67 225.582 386.356 230.184C387.224 240.178 397.046 246.372 402.301 248.332C405.253 250.484 409.935 244.903 411.907 241.844C411.826 235.907 399.903 230.414 399.721 228.176C399.539 225.939 397.23 220.559 393.462 220.907Z" fill="#F5BD8E"/>
</g>
<g filter="url(#filter25_f)">
<path d="M410.985 240.532C412.824 242.148 411.751 251.082 410.985 255.346C410.891 255.885 406.349 255.122 404.089 254.673C401.147 254.134 401.944 249.51 402.71 247.266C404.181 249.421 408.839 243.674 410.985 240.532Z" fill="#F5BD8E"/>
</g>
<g filter="url(#filter26_f)">
<path d="M481.9 353.214C481.035 350.974 486.198 346.148 488.888 344.015C489.225 343.744 492.885 347.272 494.674 349.07C497.023 351.382 494.137 353.718 492.4 354.597C492.114 352.269 485.281 352.705 481.9 353.214Z" fill="#F5BD8E"/>
</g>
<g filter="url(#filter27_f)">
<path d="M488 342.032C490.667 345.865 496.6 353.232 499 352.032" stroke="#848A9A"/>
</g>
<g filter="url(#filter28_f)">
<path d="M422.781 238.078C420.145 236.058 420.366 228.616 420.824 224.967C421.001 224.278 421.615 221.826 421.795 221.184C433.046 181.213 450.988 232.578 453.06 236.469C455.164 240.423 442.352 248.652 439.645 250.516C436.937 252.381 432.33 249.491 431.281 248.368C430.233 247.245 426.133 240.645 422.781 238.078Z" fill="#F5BD8E"/>
<path d="M420.847 224.781C420.375 228.357 420.099 236.023 422.781 238.078C426.133 240.645 430.233 247.245 431.281 248.368C432.33 249.491 436.937 252.381 439.645 250.516C442.352 248.652 455.164 240.423 453.06 236.469C450.988 232.578 433.046 181.213 421.795 221.184C421.615 221.826 421.001 224.278 420.824 224.967" stroke="#F5BD8E"/>
</g>
<g filter="url(#filter29_f)">
<path d="M419.106 207.267C414.632 216.357 418.193 222.392 420.533 224.273C420.026 204.517 449.029 220.927 453.163 236.069C471.457 251.228 488 254.532 493.5 250.532C508.81 222.535 457.824 186.95 439.616 191.629C438.362 191.951 431.932 193.779 428.347 193.854C422.929 196.899 419.929 204.065 419.106 207.267Z" fill="black"/>
<path d="M419.106 207.267C414.632 216.357 418.193 222.392 420.533 224.273C420.026 204.517 449.029 220.927 453.163 236.069C471.457 251.228 488 254.532 493.5 250.532C508.81 222.535 457.824 186.95 439.616 191.629C438.362 191.951 431.932 193.779 428.347 193.854C422.929 196.899 419.929 204.065 419.106 207.267Z" stroke="black"/>
</g>
<g filter="url(#filter30_f)">
<path d="M439.184 329.532H432C437.747 334.28 434.395 346.844 432 352.532C443.494 351.345 441.578 336.704 439.184 329.532Z" fill="#243056"/>
</g>
<g filter="url(#filter31_f)">
<path d="M330.721 463.556C340.522 470.322 351.571 466.375 355.869 463.556C358.102 462.853 363.5 477.695 362.963 483.458C359.953 485.448 353.935 487.935 346.197 487.935C338.459 487.935 328.786 492.579 324.917 494.901C319.973 497.554 307.377 502.265 296.544 499.876C283.002 496.891 289.451 490.423 290.096 487.935C290.612 485.945 317.394 470.853 330.721 463.556Z" fill="#D5DDE7"/>
</g>
<g filter="url(#filter32_f)">
<path d="M407.125 471.556C414.725 478.356 423.292 474.389 426.625 471.556C428.356 470.849 432.541 485.765 432.125 491.556C429.792 493.556 425.125 496.056 419.125 496.056C413.125 496.056 405.625 500.723 402.625 503.056C398.792 505.723 389.025 510.456 380.625 508.056C370.125 505.056 375.125 498.556 375.625 496.056C376.025 494.056 396.792 478.889 407.125 471.556Z" fill="#D5DDE7"/>
</g>
<g filter="url(#filter33_f)">
<path d="M491.499 354.032C484.098 348.684 480.533 344.836 480.999 345.532C479.979 346.039 478.931 347.402 477.999 348.032C475.983 349.394 483.999 355.365 488.499 358.532C490.332 356.365 493.575 355.532 491.499 354.032Z" fill="#848A9A"/>
<path d="M491.499 354.032C484.098 348.684 480.533 344.836 480.999 345.532C479.979 346.039 478.931 347.402 477.999 348.032C475.983 349.394 483.999 355.365 488.499 358.532C490.332 356.365 493.575 355.532 491.499 354.032Z" stroke="#848A9A"/>
</g>
<defs>
<filter id="filter0_f" x="147.5" y="188.032" width="96" height="83" filterUnits="userSpaceOnUse" color-interpolation-filters="sRGB">
<feFlood flood-opacity="0" result="BackgroundImageFix"/>
<feBlend mode="normal" in="SourceGraphic" in2="BackgroundImageFix" result="shape"/>
<feGaussianBlur stdDeviation="4" result="effect1_foregroundBlur"/>
</filter>
<filter id="filter1_f" x="309.5" y="151.032" width="78" height="120" filterUnits="userSpaceOnUse" color-interpolation-filters="sRGB">
<feFlood flood-opacity="0" result="BackgroundImageFix"/>
<feBlend mode="normal" in="SourceGraphic" in2="BackgroundImageFix" result="shape"/>
<feGaussianBlur stdDeviation="4" result="effect1_foregroundBlur"/>
</filter>
<filter id="filter2_f" x="310" y="183.532" width="77" height="17" filterUnits="userSpaceOnUse" color-interpolation-filters="sRGB">
<feFlood flood-opacity="0" result="BackgroundImageFix"/>
<feBlend mode="normal" in="SourceGraphic" in2="BackgroundImageFix" result="shape"/>
<feGaussianBlur stdDeviation="4" result="effect1_foregroundBlur"/>
</filter>
<filter id="filter3_f" x="310" y="218.532" width="77" height="17" filterUnits="userSpaceOnUse" color-interpolation-filters="sRGB">
<feFlood flood-opacity="0" result="BackgroundImageFix"/>
<feBlend mode="normal" in="SourceGraphic" in2="BackgroundImageFix" result="shape"/>
<feGaussianBlur stdDeviation="4" result="effect1_foregroundBlur"/>
</filter>
<filter id="filter4_f" x="380.5" y="151.032" width="78" height="127" filterUnits="userSpaceOnUse" color-interpolation-filters="sRGB">
<feFlood flood-opacity="0" result="BackgroundImageFix"/>
<feBlend mode="normal" in="SourceGraphic" in2="BackgroundImageFix" result="shape"/>
<feGaussianBlur stdDeviation="4" result="effect1_foregroundBlur"/>
</filter>
<filter id="filter5_f" x="381" y="218.032" width="77" height="17" filterUnits="userSpaceOnUse" color-interpolation-filters="sRGB">
<feFlood flood-opacity="0" result="BackgroundImageFix"/>
<feBlend mode="normal" in="SourceGraphic" in2="BackgroundImageFix" result="shape"/>
<feGaussianBlur stdDeviation="4" result="effect1_foregroundBlur"/>
</filter>
<filter id="filter6_f" x="381" y="183.032" width="77" height="17" filterUnits="userSpaceOnUse" color-interpolation-filters="sRGB">
<feFlood flood-opacity="0" result="BackgroundImageFix"/>
<feBlend mode="normal" in="SourceGraphic" in2="BackgroundImageFix" result="shape"/>
<feGaussianBlur stdDeviation="4" result="effect1_foregroundBlur"/>
</filter>
<filter id="filter7_f" x="371.5" y="147.032" width="25" height="123.5" filterUnits="userSpaceOnUse" color-interpolation-filters="sRGB">
<feFlood flood-opacity="0" result="BackgroundImageFix"/>
<feBlend mode="normal" in="SourceGraphic" in2="BackgroundImageFix" result="shape"/>
<feGaussianBlur stdDeviation="4" result="effect1_foregroundBlur"/>
</filter>
<filter id="filter8_f" x="291" y="124.532" width="147" height="158" filterUnits="userSpaceOnUse" color-interpolation-filters="sRGB">
<feFlood flood-opacity="0" result="BackgroundImageFix"/>
<feBlend mode="normal" in="SourceGraphic" in2="BackgroundImageFix" result="shape"/>
<feGaussianBlur stdDeviation="4" result="effect1_foregroundBlur"/>
</filter>
<filter id="filter9_f" x="48" y="89.5317" width="436" height="296.738" filterUnits="userSpaceOnUse" color-interpolation-filters="sRGB">
<feFlood flood-opacity="0" result="BackgroundImageFix"/>
<feBlend mode="normal" in="SourceGraphic" in2="BackgroundImageFix" result="shape"/>
<feGaussianBlur stdDeviation="4" result="effect1_foregroundBlur"/>
</filter>
<filter id="filter10_f" x="178.5" y="205.532" width="33.5" height="27" filterUnits="userSpaceOnUse" color-interpolation-filters="sRGB">
<feFlood flood-opacity="0" result="BackgroundImageFix"/>
<feBlend mode="normal" in="SourceGraphic" in2="BackgroundImageFix" result="shape"/>
<feGaussianBlur stdDeviation="4" result="effect1_foregroundBlur"/>
</filter>
<filter id="filter11_f" x="182" y="209.032" width="17" height="20" filterUnits="userSpaceOnUse" color-interpolation-filters="sRGB">
<feFlood flood-opacity="0" result="BackgroundImageFix"/>
<feBlend mode="normal" in="SourceGraphic" in2="BackgroundImageFix" result="shape"/>
<feGaussianBlur stdDeviation="4" result="effect1_foregroundBlur"/>
</filter>
<filter id="filter12_f" x="186" y="209.032" width="17" height="20" filterUnits="userSpaceOnUse" color-interpolation-filters="sRGB">
<feFlood flood-opacity="0" result="BackgroundImageFix"/>
<feBlend mode="normal" in="SourceGraphic" in2="BackgroundImageFix" result="shape"/>
<feGaussianBlur stdDeviation="4" result="effect1_foregroundBlur"/>
</filter>
<filter id="filter13_f" x="190" y="209.032" width="17" height="20" filterUnits="userSpaceOnUse" color-interpolation-filters="sRGB">
<feFlood flood-opacity="0" result="BackgroundImageFix"/>
<feBlend mode="normal" in="SourceGraphic" in2="BackgroundImageFix" result="shape"/>
<feGaussianBlur stdDeviation="4" result="effect1_foregroundBlur"/>
</filter>
<filter id="filter14_f" x="0" y="0" width="515" height="186.492" filterUnits="userSpaceOnUse" color-interpolation-filters="sRGB">
<feFlood flood-opacity="0" result="BackgroundImageFix"/>
<feBlend mode="normal" in="SourceGraphic" in2="BackgroundImageFix" result="shape"/>
<feGaussianBlur stdDeviation="4" result="effect1_foregroundBlur"/>
</filter>
<filter id="filter15_f" x="257.5" y="311.032" width="158.5" height="126" filterUnits="userSpaceOnUse" color-interpolation-filters="sRGB">
<feFlood flood-opacity="0" result="BackgroundImageFix"/>
<feBlend mode="normal" in="SourceGraphic" in2="BackgroundImageFix" result="shape"/>
<feGaussianBlur stdDeviation="4" result="effect1_foregroundBlur"/>
</filter>
<filter id="filter16_f" x="405.5" y="365.032" width="109" height="90" filterUnits="userSpaceOnUse" color-interpolation-filters="sRGB">
<feFlood flood-opacity="0" result="BackgroundImageFix"/>
<feBlend mode="normal" in="SourceGraphic" in2="BackgroundImageFix" result="shape"/>
<feGaussianBlur stdDeviation="4" result="effect1_foregroundBlur"/>
</filter>
<filter id="filter17_f" x="76.5" y="311.032" width="158.5" height="126" filterUnits="userSpaceOnUse" color-interpolation-filters="sRGB">
<feFlood flood-opacity="0" result="BackgroundImageFix"/>
<feBlend mode="normal" in="SourceGraphic" in2="BackgroundImageFix" result="shape"/>
<feGaussianBlur stdDeviation="4" result="effect1_foregroundBlur"/>
</filter>
<filter id="filter18_f" x="407.309" y="226.224" width="62.2913" height="168.249" filterUnits="userSpaceOnUse" color-interpolation-filters="sRGB">
<feFlood flood-opacity="0" result="BackgroundImageFix"/>
<feBlend mode="normal" in="SourceGraphic" in2="BackgroundImageFix" result="shape"/>
<feGaussianBlur stdDeviation="4" result="effect1_foregroundBlur"/>
</filter>
<filter id="filter19_f" x="381" y="237.953" width="65.6161" height="213.462" filterUnits="userSpaceOnUse" color-interpolation-filters="sRGB">
<feFlood flood-opacity="0" result="BackgroundImageFix"/>
<feBlend mode="normal" in="SourceGraphic" in2="BackgroundImageFix" result="shape"/>
<feGaussianBlur stdDeviation="4" result="effect1_foregroundBlur"/>
</filter>
<filter id="filter20_f" x="321" y="320.532" width="161" height="168" filterUnits="userSpaceOnUse" color-interpolation-filters="sRGB">
<feFlood flood-opacity="0" result="BackgroundImageFix"/>
<feBlend mode="normal" in="SourceGraphic" in2="BackgroundImageFix" result="shape"/>
<feGaussianBlur stdDeviation="4" result="effect1_foregroundBlur"/>
</filter>
<filter id="filter21_f" x="415.879" y="203.697" width="61.4033" height="67.1956" filterUnits="userSpaceOnUse" color-interpolation-filters="sRGB">
<feFlood flood-opacity="0" result="BackgroundImageFix"/>
<feBlend mode="normal" in="SourceGraphic" in2="BackgroundImageFix" result="shape"/>
<feGaussianBlur stdDeviation="4" result="effect1_foregroundBlur"/>
</filter>
<filter id="filter22_f" x="439.973" y="229.204" width="97.0269" height="231.328" filterUnits="userSpaceOnUse" color-interpolation-filters="sRGB">
<feFlood flood-opacity="0" result="BackgroundImageFix"/>
<feBlend mode="normal" in="SourceGraphic" in2="BackgroundImageFix" result="shape"/>
<feGaussianBlur stdDeviation="4" result="effect1_foregroundBlur"/>
</filter>
<filter id="filter23_f" x="496" y="295.532" width="21" height="36" filterUnits="userSpaceOnUse" color-interpolation-filters="sRGB">
<feFlood flood-opacity="0" result="BackgroundImageFix"/>
<feBlend mode="normal" in="SourceGraphic" in2="BackgroundImageFix" result="shape"/>
<feGaussianBlur stdDeviation="4" result="effect1_foregroundBlur"/>
</filter>
<filter id="filter24_f" x="374" y="211.532" width="49.2442" height="48.3052" filterUnits="userSpaceOnUse" color-interpolation-filters="sRGB">
<feFlood flood-opacity="0" result="BackgroundImageFix"/>
<feBlend mode="normal" in="SourceGraphic" in2="BackgroundImageFix" result="shape"/>
<feGaussianBlur stdDeviation="4" result="effect1_foregroundBlur"/>
</filter>
<filter id="filter25_f" x="394" y="232.532" width="26" height="31" filterUnits="userSpaceOnUse" color-interpolation-filters="sRGB">
<feFlood flood-opacity="0" result="BackgroundImageFix"/>
<feBlend mode="normal" in="SourceGraphic" in2="BackgroundImageFix" result="shape"/>
<feGaussianBlur stdDeviation="4" result="effect1_foregroundBlur"/>
</filter>
<filter id="filter26_f" x="473.803" y="336" width="29.7542" height="26.5961" filterUnits="userSpaceOnUse" color-interpolation-filters="sRGB">
<feFlood flood-opacity="0" result="BackgroundImageFix"/>
<feBlend mode="normal" in="SourceGraphic" in2="BackgroundImageFix" result="shape"/>
<feGaussianBlur stdDeviation="4" result="effect1_foregroundBlur"/>
</filter>
<filter id="filter27_f" x="479.59" y="333.746" width="27.6341" height="26.9161" filterUnits="userSpaceOnUse" color-interpolation-filters="sRGB">
<feFlood flood-opacity="0" result="BackgroundImageFix"/>
<feBlend mode="normal" in="SourceGraphic" in2="BackgroundImageFix" result="shape"/>
<feGaussianBlur stdDeviation="4" result="effect1_foregroundBlur"/>
</filter>
<filter id="filter28_f" x="406.879" y="195.697" width="61.4033" height="67.1956" filterUnits="userSpaceOnUse" color-interpolation-filters="sRGB">
<feFlood flood-opacity="0" result="BackgroundImageFix"/>
<feBlend mode="normal" in="SourceGraphic" in2="BackgroundImageFix" result="shape"/>
<feGaussianBlur stdDeviation="4" result="effect1_foregroundBlur"/>
</filter>
<filter id="filter29_f" x="403.244" y="176.917" width="110.942" height="86.1205" filterUnits="userSpaceOnUse" color-interpolation-filters="sRGB">
<feFlood flood-opacity="0" result="BackgroundImageFix"/>
<feBlend mode="normal" in="SourceGraphic" in2="BackgroundImageFix" result="shape"/>
<feGaussianBlur stdDeviation="4" result="effect1_foregroundBlur"/>
</filter>
<filter id="filter30_f" x="424" y="321.532" width="25" height="39" filterUnits="userSpaceOnUse" color-interpolation-filters="sRGB">
<feFlood flood-opacity="0" result="BackgroundImageFix"/>
<feBlend mode="normal" in="SourceGraphic" in2="BackgroundImageFix" result="shape"/>
<feGaussianBlur stdDeviation="4" result="effect1_foregroundBlur"/>
</filter>
<filter id="filter31_f" x="280" y="455.532" width="91" height="53" filterUnits="userSpaceOnUse" color-interpolation-filters="sRGB">
<feFlood flood-opacity="0" result="BackgroundImageFix"/>
<feBlend mode="normal" in="SourceGraphic" in2="BackgroundImageFix" result="shape"/>
<feGaussianBlur stdDeviation="4" result="effect1_foregroundBlur"/>
</filter>
<filter id="filter32_f" x="366" y="463.532" width="74.1539" height="53.1829" filterUnits="userSpaceOnUse" color-interpolation-filters="sRGB">
<feFlood flood-opacity="0" result="BackgroundImageFix"/>
<feBlend mode="normal" in="SourceGraphic" in2="BackgroundImageFix" result="shape"/>
<feGaussianBlur stdDeviation="4" result="effect1_foregroundBlur"/>
</filter>
<filter id="filter33_f" x="469.18" y="336.95" width="31.4899" height="30.2534" filterUnits="userSpaceOnUse" color-interpolation-filters="sRGB">
<feFlood flood-opacity="0" result="BackgroundImageFix"/>
<feBlend mode="normal" in="SourceGraphic" in2="BackgroundImageFix" result="shape"/>
<feGaussianBlur stdDeviation="4" result="effect1_foregroundBlur"/>
</filter>
</defs>
</svg>
