<svg width="1440" height="1404" viewBox="0 0 1440 1404" fill="none" xmlns="http://www.w3.org/2000/svg">
<g clip-path="url(#clip0)" filter="url(#filter0_df)">
<path d="M3.98099 589.288L-30.4923 600.358L-28.2813 607.965L-31.0765 608.863L-29.234 615.202L-26.4389 614.305L-24.5965 620.645C-26.8353 622.288 -30.2077 629.378 -30.7709 630.945C-31.3342 632.512 -32.9501 637.467 -29.7074 648.625L-32.5026 649.523L-30.2917 657.13L-27.4965 656.233L-14.4258 704.714L-16.2892 705.312L-14.0783 712.92L-11.2832 712.022L-5.75586 731.042C-4.65041 734.845 0.919221 739.988 5.01416 740.06L48.8048 725.998C50.8559 724.877 53.3285 719.832 52.0104 712.492C50.6922 705.152 49.0762 697.723 47.783 694.442L51.5101 693.245L48.9307 684.369L46.1356 685.267L32.1331 637.085L34.9282 636.187L32.7173 628.579L29.9222 629.477C29.2502 625.996 26.3458 617.872 20.1049 613.222C18.2485 611.507 13.7902 608.318 10.8088 609.275L8.96634 602.936L11.7615 602.038L9.91903 595.698L6.1922 596.895L3.98099 589.288Z" fill="#84CDEE"/>
<path d="M32.1331 637.085L34.9282 636.187L32.7173 628.579L29.9222 629.477C29.2502 625.996 26.3458 617.872 20.1049 613.222C18.2485 611.507 13.7902 608.318 10.8088 609.275L8.96634 602.936M-26.4389 614.305L-29.234 615.202L-31.0765 608.863L-28.2813 607.965L-30.4923 600.358L3.98099 589.288L6.1922 596.895L9.91903 595.698L11.7615 602.038L8.96634 602.936L-26.4389 614.305ZM-26.4389 614.305L-24.5965 620.645C-26.8353 622.288 -30.2077 629.378 -30.7709 630.945C-31.3342 632.512 -32.9501 637.467 -29.7074 648.625L-32.5026 649.523L-30.2917 657.13L-27.4965 656.233L-26.4389 614.305ZM-26.4389 614.305L8.96634 602.936L-26.4389 614.305ZM-27.4965 656.233L-14.4258 704.714L-27.4965 656.233ZM-27.4965 656.233L32.1331 637.085L-27.4965 656.233ZM-14.4258 704.714L-16.2892 705.312L-14.0783 712.92L-11.2832 712.022L-5.75586 731.042C-4.65041 734.845 0.919223 739.988 5.01417 740.06L48.8048 725.998C50.8559 724.877 53.3285 719.832 52.0104 712.492C50.6922 705.152 49.0762 697.723 47.783 694.442L51.5101 693.245L48.9307 684.369L46.1356 685.267L-14.4258 704.714ZM-14.4258 704.714L46.1356 685.267L-14.4258 704.714ZM46.1356 685.267L32.1331 637.085L46.1356 685.267Z" stroke="#50B8E7"/>
</g>
<g clip-path="url(#clip1)" filter="url(#filter1_df)">
<path d="M1390.8 239.001C1392.57 238.924 1396.82 238.451 1399.72 237.168C1402.62 235.885 1404.92 242.174 1406.17 243.678C1407.42 245.182 1411.88 242.418 1413.17 244.098C1414.79 246.198 1415.17 250.579 1416.52 250.632C1417.87 250.684 1422.48 250.429 1423.32 252.062C1424.15 253.696 1424.97 254.94 1425.92 255.511" stroke="#50B8E7"/>
<path d="M1389.63 241.798C1391.4 241.722 1395.65 241.248 1398.55 239.965C1401.45 238.682 1403.75 244.971 1405 246.475C1406.25 247.979 1410.71 245.215 1412 246.895C1413.62 248.996 1414 253.376 1415.35 253.429C1416.69 253.482 1421.31 253.226 1422.14 254.86C1422.98 256.493 1423.8 257.738 1424.75 258.309" stroke="#50B8E7"/>
<path d="M1388.09 244.647C1389.85 244.571 1394.1 244.098 1397 242.815C1399.9 241.531 1402.21 247.82 1403.46 249.325C1404.71 250.829 1409.17 248.065 1410.46 249.745C1412.07 251.845 1412.45 256.225 1413.8 256.278C1415.15 256.331 1419.76 256.076 1420.6 257.709C1421.44 259.342 1422.25 260.587 1423.2 261.158" stroke="#50B8E7"/>
<path d="M1388.13 244.57C1389.1 245.963 1391.22 249.407 1392 252.041C1392.77 254.675 1398.53 254.599 1400.31 255.124C1402.09 255.648 1402.73 259.935 1404.66 260.441C1407.07 261.072 1410.37 260.066 1411.19 261.098C1412 262.13 1414.49 265.792 1416.13 265.957C1417.76 266.121 1419.11 266.386 1420.06 266.957" stroke="#50B8E7"/>
<path d="M1386.58 247.42C1387.55 248.813 1389.68 252.257 1390.45 254.891C1391.23 257.525 1396.98 257.448 1398.76 257.973C1400.55 258.498 1401.18 262.785 1403.11 263.29C1405.52 263.922 1408.82 262.915 1409.64 263.948C1410.46 264.98 1412.95 268.642 1414.58 268.806C1416.21 268.97 1417.56 269.236 1418.51 269.807" stroke="#50B8E7"/>
<path d="M1384.42 251.409C1385.39 252.802 1387.51 256.246 1388.29 258.88C1389.06 261.514 1394.82 261.438 1396.6 261.962C1398.38 262.487 1399.02 266.774 1400.95 267.279C1403.36 267.911 1406.66 266.905 1407.48 267.937C1408.29 268.969 1410.78 272.631 1412.42 272.795C1414.05 272.96 1415.4 273.225 1416.35 273.796" stroke="#50B8E7"/>
<path d="M1427.24 253.657C1424.81 255.352 1418.75 259.05 1413.97 260.273C1409.19 261.496 1410.32 272.355 1409.64 275.665C1408.97 278.976 1401.09 279.788 1400.47 283.38C1399.71 287.869 1402.15 294.181 1400.36 295.629C1398.58 297.076 1392.18 301.44 1392.15 304.502C1392.12 307.565 1391.86 310.082 1390.95 311.827C1390.29 315 1389.37 321.251 1390.98 320.865" stroke="#50B8E7"/>
<path d="M1426.33 253.49C1423.92 255.146 1413.12 255.452 1408.37 256.624C1403.62 257.797 1404.81 268.526 1404.16 271.79C1403.51 275.053 1395.66 275.798 1395.07 279.339C1394.34 283.766 1396.81 290.016 1395.04 291.432C1393.28 292.848 1386.93 297.109 1386.92 300.133C1386.91 303.156 1386.66 305.639 1385.78 307.355C1385.14 310.483 1389.66 320.732 1391.26 320.363" stroke="#50B8E7"/>
<path d="M1421.82 254.186C1419.41 255.832 1410.67 253.608 1405.92 254.767C1401.18 255.926 1402.39 266.62 1401.75 269.87C1401.1 273.121 1393.26 273.847 1392.69 277.375C1391.96 281.785 1394.44 288.017 1392.68 289.424C1390.91 290.833 1384.58 295.066 1384.58 298.078C1384.57 301.091 1384.33 303.565 1383.45 305.273C1382.82 308.389 1388.04 318.61 1389.64 318.245" stroke="#50B8E7"/>
<path d="M1439.74 235.1C1439.19 234.642 1437.86 234.125 1437 235.72L1386.32 329.185C1386.18 329.859 1385.54 330.61 1387.36 331.7L1393.86 335.592C1394.26 335.705 1395.22 335.5 1395.87 333.78C1402.39 337.43 1419.26 343.108 1434.62 336.61C1439.68 335.111 1451.82 329.02 1459.91 316.648C1464.31 310.225 1471.59 291.934 1467.74 274.904C1465.86 266.607 1457.84 248.964 1445.17 242.88L1446.4 240.6C1446.87 239.745 1446.24 238.993 1444.68 238.059L1439.74 235.1Z" fill="#50B8E7"/>
<path d="M1395.87 333.78L1445.17 242.88M1395.87 333.78C1395.22 335.5 1394.26 335.705 1393.86 335.592L1387.36 331.7C1385.54 330.61 1386.18 329.859 1386.32 329.185L1437 235.72C1437.86 234.125 1439.19 234.642 1439.74 235.1C1441.3 236.035 1443.12 237.125 1444.68 238.059C1446.24 238.993 1446.87 239.745 1446.4 240.6C1445.94 241.455 1445.17 242.88 1445.17 242.88L1395.87 333.78ZM1395.87 333.78C1402.39 337.43 1419.26 343.108 1434.62 336.61C1439.68 335.111 1451.82 329.02 1459.91 316.648C1464.31 310.225 1471.59 291.934 1467.74 274.904C1465.86 266.607 1457.84 248.964 1445.17 242.88L1395.87 333.78Z" stroke="#B9E2F5"/>
<path d="M1329.75 345.882L1387.85 238.739" stroke="#50B8E7" stroke-width="5"/>
<path d="M1343.09 353.6L1390.23 236.348" stroke="#50B8E7" stroke-width="5"/>
</g>
<g clip-path="url(#clip2)" filter="url(#filter2_df)">
<path d="M1010.17 131.218C1009.29 129.327 1010.46 127.855 1011.15 127.356L1047.43 113.458C1049.43 112.692 1050.99 114.188 1051.4 114.728C1051.81 115.267 1053.26 119.593 1053.26 119.593C1058.73 111.176 1066.41 114.866 1069.57 117.763C1076.19 125.265 1078.27 138.562 1078.07 142.636C1077.56 151.574 1070.21 154.561 1066.6 154.938L1072.73 170.954C1073.67 173.387 1072.25 174.318 1071.42 174.48L1034.79 188.513C1032.99 189.388 1031.82 187.714 1031.46 186.768L1010.17 131.218Z" fill="#84CDEE"/>
<path d="M1064.08 147.3L1058.57 132.905C1058.11 127.871 1058.03 125.981 1058.05 125.665C1057.93 122.362 1060.91 120.846 1062.73 121.312C1070.63 126.098 1071.62 137.903 1071.12 143.208C1069.96 148.303 1065.94 148.059 1064.08 147.3Z" fill="#50B8E7"/>
</g>
<g clip-path="url(#clip3)" filter="url(#filter3_df)">
<path d="M476.926 28.8247L502.856 41.811L484.272 78.9175L458.342 65.9313L476.926 28.8247Z" fill="#84CDEE"/>
<path d="M476.926 28.8247L458.342 65.9313L484.272 78.9175L502.856 41.811M476.926 28.8247L502.856 41.811L476.926 28.8247ZM476.926 28.8247L486.979 42.2477L502.856 41.811L476.926 28.8247Z" stroke="#50B8E7"/>
<path d="M485.201 25.6997L481.171 33.7469L484.075 37.9973L489.225 27.7148L492.58 26.5989L500.418 7.5975L493.032 18.9966L497.736 6.2541L490.797 17.8771L495.501 5.1346L488.337 17.2047L493.712 4.239L483.638 22.1209L485.201 25.6997Z" fill="#50B8E7"/>
<path d="M497.944 31.5218L493.242 40.9102L498.161 41.137L501.967 33.5369C506.082 33.3606 509.051 28.6968 510.022 26.3868C514.322 16.0142 511.074 13.1201 508.912 12.9696C505.514 12.6096 500.785 18.0327 498.845 20.7893C495.085 26.5111 496.677 30.3284 497.944 31.5218Z" fill="#50B8E7"/>
</g>
<g clip-path="url(#clip4)" filter="url(#filter4_df)">
<path d="M1374.61 843.141L1462.04 869.598C1458.29 890.015 1437.11 900.366 1426.98 902.99L1382.32 889.475C1366.55 873.926 1370.69 851.533 1374.61 843.141Z" fill="#50B8E7"/>
<path d="M1396.57 810.405C1404.67 810.952 1410.49 831.781 1412.14 841.815C1410 841.802 1405.38 841.675 1404.04 841.269C1393.57 823.61 1392.37 811.996 1396.57 810.405Z" fill="#50B8E7"/>
<path d="M1457.42 868.2C1447.82 854.453 1419.68 830.757 1383.88 845.946L1457.42 868.2Z" fill="#84CDEE"/>
</g>
<g clip-path="url(#clip5)" filter="url(#filter5_df)">
<path d="M5.24058 1277.49C0.18228 1276.5 -3.07949 1271.74 -2.04477 1266.87C-1.01006 1262 3.92931 1258.86 8.98761 1259.86C14.0459 1260.86 17.3077 1265.61 16.273 1270.48C15.2383 1275.35 10.2989 1278.49 5.24058 1277.49Z" fill="#50B8E7"/>
<path d="M16.0177 1271.88C35.4416 1280.5 37.2403 1295.47 35.7116 1301.88L28.812 1334.35L-35.666 1321.65L-28.7664 1289.18C-26.7427 1272.11 -10.5779 1268.07 -2.74832 1268.19C3.83262 1274.96 12.5044 1273.47 16.0177 1271.88Z" fill="#DCF0FA"/>
<path d="M37.0883 1297.79C64.8621 1304.26 62.9651 1329.63 59.2839 1339.87L-3.38203 1327.53C-0.971645 1313.82 10.291 1291.54 37.0883 1297.79Z" fill="#B9E2F5"/>
<path d="M-27.5078 1285.07C0.266433 1291.54 -1.63064 1316.91 -5.31184 1327.15L-67.9782 1314.81C-65.5678 1301.1 -54.3052 1278.82 -27.5078 1285.07Z" fill="#84CDEE"/>
<path d="M-77.1352 1313L70.3705 1342.05C67.6902 1367.78 37.6782 1401.36 -23.4321 1386.43C-75.4717 1373.71 -81.1963 1332.93 -77.1352 1313Z" fill="#109CF1" stroke="#50B8E7"/>
</g>
<defs>
<filter id="filter0_df" x="-56" y="577.067" width="126.217" height="180.15" filterUnits="userSpaceOnUse" color-interpolation-filters="sRGB">
<feFlood flood-opacity="0" result="BackgroundImageFix"/>
<feColorMatrix in="SourceAlpha" type="matrix" values="0 0 0 0 0 0 0 0 0 0 0 0 0 0 0 0 0 0 127 0"/>
<feOffset dy="4"/>
<feGaussianBlur stdDeviation="4"/>
<feColorMatrix type="matrix" values="0 0 0 0 0 0 0 0 0 0 0 0 0 0 0 0 0 0 0.25 0"/>
<feBlend mode="normal" in2="BackgroundImageFix" result="effect1_dropShadow"/>
<feBlend mode="normal" in="SourceGraphic" in2="effect1_dropShadow" result="shape"/>
<feGaussianBlur stdDeviation="2" result="effect2_foregroundBlur"/>
</filter>
<filter id="filter1_df" x="1319.89" y="207" width="177.287" height="203.437" filterUnits="userSpaceOnUse" color-interpolation-filters="sRGB">
<feFlood flood-opacity="0" result="BackgroundImageFix"/>
<feColorMatrix in="SourceAlpha" type="matrix" values="0 0 0 0 0 0 0 0 0 0 0 0 0 0 0 0 0 0 127 0"/>
<feOffset dy="4"/>
<feGaussianBlur stdDeviation="4"/>
<feColorMatrix type="matrix" values="0 0 0 0 0 0 0 0 0 0 0 0 0 0 0 0 0 0 0.25 0"/>
<feBlend mode="normal" in2="BackgroundImageFix" result="effect1_dropShadow"/>
<feBlend mode="normal" in="SourceGraphic" in2="effect1_dropShadow" result="shape"/>
<feGaussianBlur stdDeviation="2" result="effect2_foregroundBlur"/>
</filter>
<filter id="filter2_df" x="1001" y="102" width="97.5083" height="99.8125" filterUnits="userSpaceOnUse" color-interpolation-filters="sRGB">
<feFlood flood-opacity="0" result="BackgroundImageFix"/>
<feColorMatrix in="SourceAlpha" type="matrix" values="0 0 0 0 0 0 0 0 0 0 0 0 0 0 0 0 0 0 127 0"/>
<feOffset dy="4"/>
<feGaussianBlur stdDeviation="4"/>
<feColorMatrix type="matrix" values="0 0 0 0 0 0 0 0 0 0 0 0 0 0 0 0 0 0 0.25 0"/>
<feBlend mode="normal" in2="BackgroundImageFix" result="effect1_dropShadow"/>
<feBlend mode="normal" in="SourceGraphic" in2="effect1_dropShadow" result="shape"/>
<feGaussianBlur stdDeviation="2" result="effect2_foregroundBlur"/>
</filter>
<filter id="filter3_df" x="449" y="-2" width="75.9598" height="94.2594" filterUnits="userSpaceOnUse" color-interpolation-filters="sRGB">
<feFlood flood-opacity="0" result="BackgroundImageFix"/>
<feColorMatrix in="SourceAlpha" type="matrix" values="0 0 0 0 0 0 0 0 0 0 0 0 0 0 0 0 0 0 127 0"/>
<feOffset dy="4"/>
<feGaussianBlur stdDeviation="4"/>
<feColorMatrix type="matrix" values="0 0 0 0 0 0 0 0 0 0 0 0 0 0 0 0 0 0 0.25 0"/>
<feBlend mode="normal" in2="BackgroundImageFix" result="effect1_dropShadow"/>
<feBlend mode="normal" in="SourceGraphic" in2="effect1_dropShadow" result="shape"/>
<feGaussianBlur stdDeviation="2" result="effect2_foregroundBlur"/>
</filter>
<filter id="filter4_df" x="1352.81" y="803" width="129.188" height="123.569" filterUnits="userSpaceOnUse" color-interpolation-filters="sRGB">
<feFlood flood-opacity="0" result="BackgroundImageFix"/>
<feColorMatrix in="SourceAlpha" type="matrix" values="0 0 0 0 0 0 0 0 0 0 0 0 0 0 0 0 0 0 127 0"/>
<feOffset dy="8"/>
<feGaussianBlur stdDeviation="4"/>
<feColorMatrix type="matrix" values="0 0 0 0 0 0 0 0 0 0 0 0 0 0 0 0 0 0 0.25 0"/>
<feBlend mode="normal" in2="BackgroundImageFix" result="effect1_dropShadow"/>
<feBlend mode="normal" in="SourceGraphic" in2="effect1_dropShadow" result="shape"/>
<feGaussianBlur stdDeviation="2" result="effect2_foregroundBlur"/>
</filter>
<filter id="filter5_df" x="-99" y="1241.57" width="192.847" height="174.431" filterUnits="userSpaceOnUse" color-interpolation-filters="sRGB">
<feFlood flood-opacity="0" result="BackgroundImageFix"/>
<feColorMatrix in="SourceAlpha" type="matrix" values="0 0 0 0 0 0 0 0 0 0 0 0 0 0 0 0 0 0 127 0"/>
<feOffset dy="4"/>
<feGaussianBlur stdDeviation="4"/>
<feColorMatrix type="matrix" values="0 0 0 0 0 0 0 0 0 0 0 0 0 0 0 0 0 0 0.25 0"/>
<feBlend mode="normal" in2="BackgroundImageFix" result="effect1_dropShadow"/>
<feBlend mode="normal" in="SourceGraphic" in2="effect1_dropShadow" result="shape"/>
<feGaussianBlur stdDeviation="2" result="effect2_foregroundBlur"/>
</filter>
<clipPath id="clip0">
<rect width="72.4139" height="147.885" fill="white" transform="matrix(-0.952115 0.30574 0.27907 0.960271 20.9473 581.067)"/>
</clipPath>
<clipPath id="clip1">
<rect width="153" height="103" fill="white" transform="matrix(-0.476688 0.879072 0.857806 0.513973 1400.82 211)"/>
</clipPath>
<clipPath id="clip2">
<rect width="62" height="66" fill="white" transform="translate(1009 128.181) rotate(-20.9622)"/>
</clipPath>
<clipPath id="clip3">
<rect width="31" height="72" fill="white" transform="translate(489.242 2) rotate(26.6027)"/>
</clipPath>
<clipPath id="clip4">
<rect width="92.2006" height="80.8087" fill="white" transform="matrix(-0.957136 -0.289638 -0.308619 0.951186 1474 833.705)"/>
</clipPath>
<clipPath id="clip5">
<rect width="152.304" height="131.885" fill="white" transform="matrix(-0.981158 -0.193209 -0.207851 0.97816 85.8477 1275)"/>
</clipPath>
</defs>
</svg>
