<svg width="646" height="343" viewBox="0 0 646 343" fill="none" xmlns="http://www.w3.org/2000/svg">
<path d="M570.724 129C575.97 129 580.224 124.747 580.224 119.5C580.224 114.253 575.97 110 570.724 110C565.477 110 561.224 114.253 561.224 119.5C561.224 124.747 565.477 129 570.724 129Z" fill="#50B8E7"/>
<path d="M561.181 121C540.019 125.96 535.061 141.076 535.228 148.014V183H602.107V148.014C603.704 129.946 588.465 122.476 580.646 121C572.66 126.669 564.342 123.362 561.181 121Z" fill="#DCF0FA"/>
<path d="M534.724 143.5C505.704 144.536 502.224 171.167 503.724 182.5H568.724C569.224 167.833 562.724 142.5 534.724 143.5Z" fill="#B9E2F5"/>
<path d="M601.724 143.5C572.704 144.536 569.224 171.167 570.724 182.5H635.724C636.224 167.833 629.724 142.5 601.724 143.5Z" fill="#84CDEE"/>
<path d="M645.223 182.5H492.223C489.449 209.653 512.224 250.5 576.224 247.5C630.724 244.945 645.051 203.933 645.223 182.5Z" fill="#109CF1" stroke="#50B8E7"/>
<g clip-path="url(#clip0)">
<path d="M29.1957 150.544C28.2232 152.059 25.63 155.573 23.0368 157.512C20.4436 159.451 24.6575 164.479 25.3058 166.297C25.9542 168.115 21.2864 170.72 22.0643 172.659C23.0368 175.082 26.6024 177.506 25.9542 178.718C25.3058 179.929 22.7126 183.868 23.6851 185.382C24.6575 186.897 25.3058 188.21 25.3058 189.321" stroke="#50B8E7"/>
<path d="M32.2005 150.847C31.228 152.362 28.6348 155.876 26.0416 157.815C23.4484 159.754 27.6624 164.782 28.3107 166.6C28.959 168.418 24.2912 171.023 25.0692 172.962C26.0416 175.385 29.6073 177.809 28.959 179.021C28.3107 180.232 25.7175 184.171 26.6899 185.685C27.6623 187.2 28.3107 188.513 28.3107 189.624" stroke="#50B8E7"/>
<path d="M35.4417 150.847C34.4692 152.362 31.876 155.876 29.2828 157.815C26.6896 159.754 30.9036 164.782 31.5519 166.6C32.2002 168.418 27.5325 171.023 28.3104 172.962C29.2828 175.385 32.8485 177.809 32.2002 179.021C31.5519 180.232 28.9587 184.171 29.9311 185.685C30.9035 187.2 31.5519 188.513 31.5519 189.624" stroke="#50B8E7"/>
<path d="M35.3545 150.847C36.0531 152.362 37.9162 155.876 39.7792 157.815C41.6423 159.754 38.6148 164.782 38.1491 166.6C37.6833 168.418 41.0368 171.023 40.4779 172.962C39.7792 175.385 37.2175 177.809 37.6833 179.021C38.1491 180.232 40.0121 184.171 39.3135 185.685C38.6149 187.2 38.1491 188.513 38.1491 189.624" stroke="#50B8E7"/>
<path d="M38.5957 150.847C39.2943 152.362 41.1574 155.876 43.0205 157.815C44.8835 159.754 41.856 164.782 41.3903 166.6C40.9245 168.418 44.278 171.023 43.7191 172.962C43.0204 175.385 40.4587 177.809 40.9245 179.021C41.3903 180.232 43.2533 184.171 42.5547 185.685C41.8561 187.2 41.3903 188.513 41.3903 189.624" stroke="#50B8E7"/>
<path d="M43.1338 150.847C43.8324 152.362 45.6955 155.876 47.5585 157.815C49.4216 159.754 46.3941 164.782 45.9284 166.6C45.4626 168.418 48.8161 171.023 48.2572 172.962C47.5585 175.385 44.9968 177.809 45.4626 179.021C45.9284 180.232 47.7914 184.171 47.0928 185.685C46.3942 187.2 45.9284 188.513 45.9284 189.624" stroke="#50B8E7"/>
<path d="M23.0371 189.593C25.7438 188.263 32.0343 184.698 35.5426 181.077C39.0508 177.456 47.7958 183.627 50.985 184.613C54.1741 185.6 58.9267 179.051 62.3257 180.226C66.5742 181.694 70.7389 186.852 72.9004 185.972C75.0612 185.093 82.1011 181.542 84.7443 182.979C87.3881 184.415 89.6857 185.384 91.6474 185.423C94.7133 186.354 100.554 188.525 99.3947 189.758" stroke="#50B8E7"/>
<path d="M23.3604 188.715C26.0229 187.384 31.8397 178.029 35.2916 174.407C38.7434 170.785 47.3419 176.953 50.4782 177.939C53.6144 178.924 58.2912 172.374 61.6337 173.547C65.8116 175.014 69.9063 180.171 72.032 179.29C74.1578 178.41 81.0824 174.857 83.6821 176.293C86.2818 177.728 88.5411 178.696 90.4705 178.735C93.4851 179.665 99.9604 188.53 98.8194 189.764" stroke="#50B8E7"/>
<path d="M26.2783 185.079C28.9289 183.748 31.5177 174.993 34.9541 171.371C38.3905 167.748 46.9491 173.916 50.0709 174.901C53.1926 175.886 57.8488 169.335 61.1759 170.509C65.335 171.976 69.4096 177.131 71.5257 176.251C73.6424 175.37 80.5358 171.817 83.1232 173.252C85.7106 174.688 87.9596 175.655 89.8798 175.694C92.8809 176.623 98.9717 186.093 97.8352 187.327" stroke="#50B8E7"/>
<path d="M0.670351 191.744C0.562301 191.037 0.800012 189.624 2.61527 189.624H108.937C109.586 189.825 110.558 189.624 110.558 191.744V199.318C110.45 199.722 109.78 200.469 107.965 200.226C107.748 207.699 103.945 225.249 90.4607 235.671C86.5709 239.407 75.0959 247.182 60.3144 248.394C52.5347 249.202 33.0855 246.879 20.4436 235.368C14.2847 229.76 3.2635 214.283 4.56011 200.226H1.96689C0.994432 200.226 0.670286 199.318 0.670351 197.5V191.744Z" fill="#50B8E7"/>
<path d="M107.965 200.226H4.56011M107.965 200.226C109.78 200.469 110.45 199.722 110.558 199.318V191.744C110.558 189.624 109.586 189.825 108.937 189.624H2.61527C0.800012 189.624 0.562301 191.037 0.670351 191.744C0.670351 193.562 0.670416 195.682 0.670351 197.5C0.670286 199.318 0.994432 200.226 1.96689 200.226C2.93935 200.226 4.56011 200.226 4.56011 200.226H107.965ZM107.965 200.226C107.748 207.699 103.945 225.249 90.4607 235.671C86.5709 239.407 75.0959 247.182 60.3144 248.394C52.5347 249.202 33.0855 246.879 20.4436 235.368C14.2847 229.76 3.2635 214.283 4.56011 200.226H107.965Z" stroke="#B9E2F5"/>
<path d="M152.374 147.818H30.4922" stroke="#50B8E7" stroke-width="5"/>
<path d="M152.139 163.237L27.2158 148.77" stroke="#50B8E7" stroke-width="5"/>
</g>
<path d="M472.01 3.25658C471.857 1.17237 473.477 0.217105 474.306 0H513.152C515.295 0 516.214 1.95395 516.405 2.60526C516.596 3.25658 516.405 7.81579 516.405 7.81579C524.519 1.91053 530.374 8.10528 532.288 11.9408C535.783 21.3141 532.976 34.4774 531.331 38.2105C527.657 46.3737 519.722 46.533 516.214 45.5921V62.7434C516.214 65.3487 514.555 65.7104 513.726 65.5658H474.498C472.508 65.7395 472.01 63.7564 472.01 62.7434V3.25658Z" fill="#84CDEE"/>
<path d="M516.597 37.5592V22.1447C517.974 17.2816 518.574 15.4869 518.702 15.1974C519.773 12.0711 523.103 11.7237 524.634 12.8092C530.298 20.1039 526.994 31.4803 524.634 36.2566C521.725 40.5987 518.064 38.9342 516.597 37.5592Z" fill="#50B8E7"/>
<path d="M164 2.58928H201V10.3571H204V16.8303H201V23.3036C203.667 24.1666 209 29.7768 210 31.0714C211 32.3661 214 36.5089 214 47.9018H217V55.6696H214L215 104.866H217V112.634H214V132.054C214 135.937 210 142.411 206 143.705H159C156.667 143.274 152.8 139.304 152 132.054C151.2 124.804 150.667 117.381 151 113.929H147V104.866H150V55.6696H147V47.9018H150C149.667 44.4495 150.2 35.9911 155 29.7768C156.333 27.6191 159.8 23.3036 163 23.3036V16.8303H160V10.3571H164L164 2.58928Z" fill="#84CDEE"/>
<path d="M150 55.6696H147V47.9018H150C149.667 44.4495 150.2 35.9911 155 29.7768C156.333 27.6191 159.8 23.3036 163 23.3036V16.8303M201 16.8303H204V10.3571H201V2.58928H164L164 10.3571H160V16.8303H163H201ZM201 16.8303V23.3036C203.667 24.1666 209 29.7768 210 31.0714C211 32.3661 214 36.5089 214 47.9018H217V55.6696H214L201 16.8303ZM201 16.8303H163H201ZM214 55.6696L215 104.866L214 55.6696ZM214 55.6696H150H214ZM215 104.866H217V112.634H214V132.054C214 135.937 210 142.411 206 143.705H159C156.667 143.274 152.8 139.304 152 132.054C151.2 124.804 150.667 117.381 151 113.929H147V104.866H150H215ZM215 104.866H150H215ZM150 104.866V55.6696V104.866Z" stroke="#50B8E7"/>
<path d="M154 300.5H183V342H154V300.5Z" fill="#84CDEE"/>
<path d="M154 300.5V342H183V300.5M154 300.5H183H154ZM154 300.5L169 308L183 300.5H154Z" stroke="#50B8E7"/>
<path d="M160 294V303L164.5 305.5V294L167 291.5L165.5 271L164 284.5L162.5 271L161.5 284.5L160 271L159 285L158 271L157 291.5L160 294Z" fill="#50B8E7"/>
<path d="M174 293.5V304L178.5 302V293.5C182.1 291.5 182.667 286 182.5 283.5C181.7 272.3 177.5 271.167 175.5 272C172.3 273.2 170.5 280.167 170 283.5C169.2 290.3 172.334 293 174 293.5Z" fill="#50B8E7"/>
<g clip-path="url(#clip1)">
<path d="M411.43 194.787H318.3C315.515 216.489 332.806 233.369 341.8 239.096H389.37C409.563 228.245 412.59 204.433 411.43 194.787Z" fill="#50B8E7"/>
<path d="M400.439 155.134C392.405 153.214 380.205 172.415 375.444 182.016C377.527 182.656 382.05 183.936 383.478 183.936C399.189 169.343 404.01 158.014 400.439 155.134Z" fill="#50B8E7"/>
<path d="M323.223 194.787C336.858 183.869 371.615 168.584 401.556 194.787H323.223Z" fill="#84CDEE"/>
</g>
<defs>
<clipPath id="clip0">
<rect width="153" height="103" fill="white" transform="translate(0 146)"/>
</clipPath>
<clipPath id="clip1">
<rect width="94" height="85" fill="white" transform="translate(318 155)"/>
</clipPath>
</defs>
</svg>
