<?xml version="1.0" encoding="utf-8"?>
<svg id="master-artboard" viewBox="0 0 1400 980" version="1.1" xmlns="http://www.w3.org/2000/svg" x="0px" y="0px" style="enable-background:new 0 0 1400 980;" width="1400px" height="980px"><defs><style id="ee-google-fonts">@import url(https://fonts.googleapis.com/css?family=Rubik:300,300italic,400,400italic,500,500italic,700,700italic,900,900italic);</style></defs><rect id="ee-background" x="0" y="0" width="1400" height="980" style="fill: white; fill-opacity: 1; pointer-events: none;"/>








































<g transform="matrix(1.4999973511773723, 0, 0, 1.1428571939468384, 360.9951094912292, 366.1912841796875)"><path d="M18.5098 8H17.5098V6C17.5098 3.24 15.2698 1 12.5098 1C9.74977 1 7.50977 3.24 7.50977 6V8H6.50977C5.40977 8 4.50977 8.9 4.50977 10V20C4.50977 21.1 5.40977 22 6.50977 22H18.5098C19.6098 22 20.5098 21.1 20.5098 20V10C20.5098 8.9 19.6098 8 18.5098 8ZM12.5098 17C11.4098 17 10.5098 16.1 10.5098 15C10.5098 13.9 11.4098 13 12.5098 13C13.6098 13 14.5098 13.9 14.5098 15C14.5098 16.1 13.6098 17 12.5098 17ZM15.6098 8H9.40977V6C9.40977 4.29 10.7998 2.9 12.5098 2.9C14.2198 2.9 15.6098 4.29 15.6098 6V8Z" fill="black" style="fill: rgb(144, 160, 183);"/></g></svg>