<?xml version="1.0" encoding="UTF-8" standalone="no"?>
<!DOCTYPE svg PUBLIC "-//W3C//DTD SVG 1.1//EN" "http://www.w3.org/Graphics/SVG/1.1/DTD/svg11.dtd">
<svg version="1.1" xmlns="http://www.w3.org/2000/svg" xmlns:xlink="http://www.w3.org/1999/xlink" preserveAspectRatio="xMidYMid meet" viewBox="0 0 24 24" width="24" height="24"><defs><path d="M31.33 38.33L55.33 38.33L55.33 62.33L31.33 62.33L31.33 38.33Z" id="cGiN5xjV"></path><path d="M14.55 2.36L15.55 2.78L16.47 3.35L17.28 4.05L17.98 4.86L18.55 5.78L18.98 6.79L19.24 7.86L19.33 9L19.14 10.64L18.61 12.37L17.82 14.12L16.87 15.84L15.83 17.47L14.8 18.94L13.85 20.18L13.06 21.15L12.53 21.78L12.33 22L12.14 21.78L11.61 21.15L10.82 20.18L9.87 18.94L8.83 17.47L7.8 15.84L6.85 14.12L6.06 12.37L5.53 10.64L5.33 9L5.42 7.86L5.69 6.79L6.11 5.78L6.68 4.86L7.38 4.05L8.2 3.35L9.11 2.78L10.12 2.36L11.2 2.09L12.33 2L13.47 2.09L14.55 2.36ZM10.57 7.23L10.03 8.03L9.83 9L10.03 9.97L10.57 10.77L11.36 11.3L12.33 11.5L13.31 11.3L14.1 10.77L14.64 9.97L14.83 9L14.64 8.03L14.1 7.23L13.31 6.7L12.33 6.5L11.36 6.7L10.57 7.23Z" id="bRep418XU"></path></defs><g><g><g><use xlink:href="#cGiN5xjV" opacity="1" fill="#000000" fill-opacity="0"></use><g><use xlink:href="#cGiN5xjV" opacity="1" fill-opacity="0" stroke="#000000" stroke-width="1" stroke-opacity="0"></use></g></g><g><use xlink:href="#bRep418XU" opacity="1" fill="#90a0b7" fill-opacity="1"></use><g><use xlink:href="#bRep418XU" opacity="1" fill-opacity="0" stroke="#000000" stroke-width="1" stroke-opacity="0"></use></g></g></g></g></svg>