<svg width="150" height="150" viewBox="0 0 150 150" fill="none" xmlns="http://www.w3.org/2000/svg">
<path d="M75 150C116.421 150 150 116.421 150 75C150 33.5786 116.421 0 75 0C33.5786 0 0 33.5786 0 75C0 116.421 33.5786 150 75 150Z" fill="#3DB39E"/>
<path d="M137.813 34.1017L71.4844 102.774L71.6016 110.157H74.6485L146.485 52.2658C144.375 45.8206 141.446 39.6096 137.813 34.1017Z" fill="#37A18E"/>
<path d="M148.595 30.8207L135.352 17.6955C133.594 15.9376 130.665 15.9376 128.79 17.6955L72.1879 76.1724L47.6955 52.0317C45.9376 50.2738 43.0079 50.2738 41.1331 52.0317L29.4141 63.6334C27.6562 65.3913 27.6562 68.321 29.4141 70.0789L68.5551 108.868C69.6099 109.923 71.0161 110.274 72.4223 110.157C73.8286 110.274 75.2348 109.922 76.2896 108.868L148.595 37.3831C150.353 35.5079 150.353 32.5783 148.595 30.8207Z" fill="#F2F1EF"/>
<path d="M76.2895 108.868L148.595 37.383C150.353 35.6251 150.353 32.6954 148.595 30.9375L146.485 28.9454L72.3051 101.836L31.2892 61.8754L29.5313 63.6333C27.7734 65.3912 27.7734 68.3209 29.5313 70.0788L68.6723 108.868C69.7271 109.923 71.1333 110.274 72.5395 110.157C73.8285 110.274 75.2347 109.923 76.2895 108.868Z" fill="#E6E5E3"/>
</svg>
