<?xml version="1.0" encoding="UTF-8" standalone="no"?>
<!DOCTYPE svg PUBLIC "-//W3C//DTD SVG 1.1//EN" "http://www.w3.org/Graphics/SVG/1.1/DTD/svg11.dtd">
<svg version="1.1" xmlns="http://www.w3.org/2000/svg" xmlns:xlink="http://www.w3.org/1999/xlink" preserveAspectRatio="xMidYMid meet" viewBox="0 0 24 24" width="24" height="24"><defs><path d="M31.33 38.33L55.33 38.33L55.33 62.33L31.33 62.33L31.33 38.33Z" id="cGiN5xjV"></path><path d="M46 14.33L70 14.33L70 38.33L46 38.33L46 14.33Z" id="b4clmRHVwf"></path><path d="M20 20L19.98 20.25L19.94 20.49L19.86 20.72L19.76 20.94L19.64 21.14L19.49 21.33L19.33 21.49L19.14 21.64L18.94 21.76L18.72 21.86L18.49 21.94L18.25 21.98L18 22L5.99 22L5.74 21.98L5.5 21.94L5.27 21.86L5.05 21.76L4.85 21.64L4.67 21.49L4.5 21.33L4.36 21.14L4.23 20.94L4.13 20.72L4.06 20.49L4.02 20.25L4 20L4.01 4L4.03 3.75L4.07 3.51L4.14 3.28L4.24 3.06L4.37 2.86L4.51 2.67L4.68 2.51L4.86 2.36L5.06 2.24L5.28 2.14L5.51 2.06L5.75 2.02L6 2L14 2L20 8L20 20ZM8 18L16 18L16 16L8 16L8 18ZM8 14L16 14L16 12L8 12L8 14ZM18.5 9L13 3.5L13 9L18.5 9Z" id="a3vkHK7A7"></path></defs><g><g><g><use xlink:href="#cGiN5xjV" opacity="1" fill="#000000" fill-opacity="0"></use><g><use xlink:href="#cGiN5xjV" opacity="1" fill-opacity="0" stroke="#000000" stroke-width="1" stroke-opacity="0"></use></g></g><g><use xlink:href="#b4clmRHVwf" opacity="1" fill="#000000" fill-opacity="0"></use><g><use xlink:href="#b4clmRHVwf" opacity="1" fill-opacity="0" stroke="#000000" stroke-width="1" stroke-opacity="0"></use></g></g><g><use xlink:href="#a3vkHK7A7" opacity="1" fill="#90a0b7" fill-opacity="1"></use><g><use xlink:href="#a3vkHK7A7" opacity="1" fill-opacity="0" stroke="#000000" stroke-width="1" stroke-opacity="0"></use></g></g></g></g></svg>