<?xml version="1.0" encoding="UTF-8" standalone="no"?>
<!DOCTYPE svg PUBLIC "-//W3C//DTD SVG 1.1//EN" "http://www.w3.org/Graphics/SVG/1.1/DTD/svg11.dtd">
<svg version="1.1" xmlns="http://www.w3.org/2000/svg" xmlns:xlink="http://www.w3.org/1999/xlink" preserveAspectRatio="xMidYMid meet" viewBox="0 0 24 24" width="24" height="24"><defs><path d="M21.49 4.06L21.72 4.14L21.94 4.24L22.14 4.36L22.33 4.51L22.49 4.67L22.64 4.86L22.76 5.06L22.86 5.28L22.94 5.51L22.98 5.75L23 6L23 18L22.98 18.25L22.94 18.49L22.86 18.72L22.76 18.94L22.64 19.14L22.49 19.33L22.33 19.49L22.14 19.64L21.94 19.76L21.72 19.86L21.49 19.94L21.25 19.98L21 20L5 20L4.75 19.98L4.51 19.94L4.28 19.86L4.06 19.76L3.86 19.64L3.67 19.49L3.51 19.33L3.36 19.14L3.24 18.94L3.14 18.72L3.06 18.49L3.02 18.25L3 18L3.01 6L3.03 5.75L3.07 5.51L3.14 5.28L3.24 5.06L3.37 4.86L3.51 4.67L3.68 4.51L3.86 4.36L4.06 4.24L4.28 4.14L4.51 4.06L4.75 4.02L5 4L21 4L21.25 4.02L21.49 4.06ZM5 6L5 8L13 13L21 8L21 6L13 11L5 6Z" id="g1XXjmOSiS"></path></defs><g><g><g><use xlink:href="#g1XXjmOSiS" opacity="1" fill="#000000" fill-opacity="1"></use><use xlink:href="#g1XXjmOSiS" opacity="1" fill="#90a0b7" fill-opacity="1"></use><g><use xlink:href="#g1XXjmOSiS" opacity="1" fill-opacity="0" stroke="#000000" stroke-width="1" stroke-opacity="0"></use></g></g></g></g></svg>