<?xml version="1.0" encoding="UTF-8" standalone="no"?>
<!DOCTYPE svg PUBLIC "-//W3C//DTD SVG 1.1//EN" "http://www.w3.org/Graphics/SVG/1.1/DTD/svg11.dtd">
<svg version="1.1" xmlns="http://www.w3.org/2000/svg" xmlns:xlink="http://www.w3.org/1999/xlink" preserveAspectRatio="xMidYMid meet" viewBox="0 0 24 24" width="24" height="24"><defs><path d="M13.23 1.65L13.81 1.84L14.35 2.09L14.86 2.4L15.32 2.76L15.74 3.18L16.1 3.64L16.41 4.15L16.66 4.69L16.85 5.27L16.96 5.87L17 6.5L17 8.5L18 8.5L18.25 8.52L18.49 8.56L18.72 8.64L18.94 8.74L19.14 8.86L19.33 9.01L19.49 9.17L19.64 9.36L19.76 9.56L19.86 9.78L19.94 10.01L19.98 10.25L20 10.5L20 20.5L19.98 20.75L19.94 20.99L19.86 21.22L19.76 21.44L19.64 21.64L19.49 21.83L19.33 21.99L19.14 22.14L18.94 22.26L18.72 22.36L18.49 22.44L18.25 22.48L18 22.5L6 22.5L5.75 22.48L5.51 22.44L5.28 22.36L5.06 22.26L4.86 22.14L4.67 21.99L4.51 21.83L4.36 21.64L4.24 21.44L4.14 21.22L4.06 20.99L4.02 20.75L4 20.5L4 10.5L4.02 10.25L4.06 10.01L4.14 9.78L4.24 9.56L4.36 9.36L4.51 9.17L4.67 9.01L4.86 8.86L5.06 8.74L5.28 8.64L5.51 8.56L5.75 8.52L6 8.5L7 8.5L7 6.5L7.04 5.87L7.15 5.27L7.34 4.69L7.59 4.15L7.9 3.64L8.26 3.18L8.68 2.76L9.14 2.4L9.65 2.09L10.19 1.84L10.77 1.65L11.37 1.54L12 1.5L12.63 1.54L13.23 1.65ZM10.59 14.09L10.16 14.72L10 15.5L10.16 16.28L10.59 16.91L11.22 17.34L12 17.5L12.78 17.34L13.41 16.91L13.84 16.28L14 15.5L13.84 14.72L13.41 14.09L12.78 13.66L12 13.5L11.22 13.66L10.59 14.09ZM9.81 4.31L9.14 5.29L8.9 6.5L8.9 8.5L15.1 8.5L15.1 6.5L14.86 5.29L14.19 4.31L13.21 3.64L12 3.4L10.79 3.64L9.81 4.31Z" id="e225VbEYQV"></path></defs><g><g><g><use xlink:href="#e225VbEYQV" opacity="1" fill="#90a0b7" fill-opacity="1"></use><g><use xlink:href="#e225VbEYQV" opacity="1" fill-opacity="0" stroke="#000000" stroke-width="1" stroke-opacity="0"></use></g></g></g></g></svg>