<svg width="32" height="32" viewBox="0 0 32 32" fill="none" xmlns="http://www.w3.org/2000/svg">
<path d="M17.3327 29.3333C18.7993 29.3333 19.9993 28.1333 19.9993 26.6667H14.666C14.666 28.1333 15.866 29.3333 17.3327 29.3333ZM25.3327 21.3333V14.6667C25.3327 10.5733 23.1593 7.14668 19.3327 6.24001V5.33334C19.3327 4.22668 18.4393 3.33334 17.3327 3.33334C16.226 3.33334 15.3327 4.22668 15.3327 5.33334V6.24001C11.5193 7.14668 9.33268 10.56 9.33268 14.6667V21.3333L6.66602 24V25.3333H27.9993V24L25.3327 21.3333ZM22.666 22.6667H11.9993V14.6667C11.9993 11.36 14.0127 8.66668 17.3327 8.66668C20.6527 8.66668 22.666 11.36 22.666 14.6667V22.6667Z" fill="#90A0B7"/>
<path d="M17.3327 29.3333C18.7993 29.3333 19.9993 28.1333 19.9993 26.6667H14.666C14.666 28.1333 15.866 29.3333 17.3327 29.3333ZM25.3327 21.3333V14.6667C25.3327 10.5733 23.1593 7.14668 19.3327 6.24001V5.33334C19.3327 4.22668 18.4393 3.33334 17.3327 3.33334C16.226 3.33334 15.3327 4.22668 15.3327 5.33334V6.24001C11.5193 7.14668 9.33268 10.56 9.33268 14.6667V21.3333L6.66602 24V25.3333H27.9993V24L25.3327 21.3333ZM22.666 22.6667H11.9993V14.6667C11.9993 11.36 14.0127 8.66668 17.3327 8.66668C20.6527 8.66668 22.666 11.36 22.666 14.6667V22.6667Z" fill="#90A0B7"/>
<path d="M23 23H12V13.5C12 9.9 15.5794 8.5 17.5 8.5C21.2714 8.5 22.8254 12 23 13.5V23Z" fill="#90A0B7"/>
</svg>
