<svg width="25" height="24" viewBox="0 0 25 24" fill="none" xmlns="http://www.w3.org/2000/svg">
<path d="M12.5098 22C13.6098 22 14.5098 21.1 14.5098 20H10.5098C10.5098 21.1 11.4098 22 12.5098 22ZM18.5098 16V11C18.5098 7.93 16.8798 5.36 14.0098 4.68V4C14.0098 3.17 13.3398 2.5 12.5098 2.5C11.6798 2.5 11.0098 3.17 11.0098 4V4.68C8.14977 5.36 6.50977 7.92 6.50977 11V16L4.50977 18V19H20.5098V18L18.5098 16ZM16.5098 17H8.50977V11C8.50977 8.52 10.0198 6.5 12.5098 6.5C14.9998 6.5 16.5098 8.52 16.5098 11V17Z" fill="black"/>
</svg>
